<svg width="45" height="34" viewBox="0 0 45 34" fill="none" xmlns="http://www.w3.org/2000/svg">
<g id="Frame 35">
<g id="Clip path group" filter="url(#filter0_d_0_59)">
<mask id="mask0_0_59" style="mask-type:luminance" maskUnits="userSpaceOnUse" x="6" y="0" width="32" height="26">
<g id="e2da97d5fb">
<path id="Vector" d="M6.11261 0H37.9421V25.5661H6.11261V0Z" fill="white"/>
</g>
</mask>
<g mask="url(#mask0_0_59)">
<g id="Group">
<path id="Vector_2" fill-rule="evenodd" clip-rule="evenodd" d="M12.6826 14.3695C11.4288 14.8012 10.1751 15.2329 8.92019 15.6636C8.51837 15.8009 8.0858 15.8602 7.66093 15.803C7.30522 15.7541 6.96049 15.6241 6.68382 15.4046C6.46645 15.2298 6.30067 15.0072 6.21174 14.7502C6.11952 14.4808 6.12062 14.1978 6.20186 13.9263C6.32811 13.4998 6.63881 13.1388 6.99123 12.8559C7.51821 12.4346 8.1901 12.1391 8.83894 11.929C9.85338 11.5992 10.8689 11.2726 11.8844 10.9449C13.2546 10.5027 14.6258 10.0617 15.9949 9.61329C16.5109 9.44477 17.0269 9.2752 17.5407 9.10251C17.858 8.99536 18.1785 8.88925 18.4914 8.7717C18.8537 8.63438 19.4576 8.34726 19.5476 7.94363C19.5739 7.82712 19.5465 7.71477 19.4795 7.6149C19.3862 7.47758 19.2292 7.37563 19.0755 7.30594C18.7275 7.15093 18.3103 7.1166 17.9304 7.14573C17.3914 7.18838 16.8611 7.36003 16.3835 7.59409C16.2232 7.85937 15.9213 8.10904 15.6688 8.28485C15.4723 8.4232 15.2549 8.547 15.0013 8.53347C14.8871 8.52827 14.7751 8.49602 14.6653 8.4669C14.572 8.44089 14.4809 8.418 14.3854 8.4024C14.2482 8.38055 14.1087 8.37327 13.9704 8.37535L13.3984 8.38679L13.7223 7.94155C13.91 7.6846 14.2141 7.42557 14.4842 7.2508C14.5742 7.19254 14.6664 7.13845 14.7631 7.09164L14.762 7.08956L14.8465 7.05211C15.2121 6.8919 15.6293 6.83156 15.9839 7.05002C16.0168 7.07083 16.0476 7.09372 16.0739 7.12076C16.636 6.84093 17.2574 6.64223 17.8942 6.59438C18.3718 6.55901 18.8889 6.60998 19.3258 6.80556C19.5827 6.91999 19.8198 7.08852 19.9736 7.31634C20.1251 7.54 20.181 7.79695 20.1229 8.05806C19.9834 8.67391 19.2786 9.07026 18.7077 9.2856C18.3882 9.40524 18.0611 9.51447 17.7372 9.6237C17.2201 9.79846 16.7019 9.96907 16.1837 10.1386C14.8147 10.586 13.4434 11.027 12.0733 11.4692C11.0588 11.7969 10.0444 12.1245 9.02997 12.4533C8.46896 12.6353 7.87392 12.8871 7.41171 13.2439C7.13285 13.4582 6.86607 13.7422 6.76726 14.0761C6.71786 14.2426 6.71347 14.4153 6.77056 14.5807C6.82435 14.7388 6.92975 14.874 7.06369 14.9812C7.26021 15.1383 7.51052 15.2267 7.76523 15.2579C8.0869 15.2974 8.41626 15.2464 8.71928 15.1424C10.1553 14.6504 11.5913 14.1573 13.0251 13.661C13.0888 13.5508 13.1558 13.4415 13.226 13.3354C14.6599 11.1779 17.2772 10.5516 19.8264 10.5111H19.8308C19.9285 10.5059 20.0273 10.4944 20.124 10.483C20.181 10.4757 20.237 10.4674 20.2941 10.459V10.4466L20.3358 10.4486L20.3754 10.4372L20.3776 10.4466C20.3885 10.4445 20.3995 10.4434 20.4105 10.4414L20.4116 10.4393L20.4138 10.4403C20.5609 10.4164 20.7069 10.3873 20.8507 10.354C21.0055 10.3186 21.1603 10.278 21.3151 10.2302L21.3162 10.2167L21.3514 10.2187C21.8421 10.0658 22.3208 9.84736 22.716 9.54567L22.7259 9.53839C22.7621 9.50718 22.8017 9.46453 22.8357 9.43228C22.9104 9.35842 22.9839 9.28456 23.0586 9.20966C23.0893 9.18053 23.119 9.15036 23.1486 9.1202C23.1563 9.11291 23.164 9.10459 23.1716 9.09731C22.4558 8.63126 21.8399 8.01125 21.7653 7.15197C21.7565 7.04794 21.7554 6.94288 21.762 6.83781C21.8081 6.09088 22.2582 5.50832 22.8829 5.0818C23.1058 4.92992 23.3495 4.79988 23.5998 4.69273C23.6437 4.67401 23.6876 4.65528 23.7338 4.6376C23.7349 4.58871 23.7382 4.53981 23.7414 4.49092C23.8106 3.49536 24.1641 2.44571 25.2324 2.05353C25.5244 1.94534 25.8417 1.9006 26.1557 1.90685C26.2193 1.90789 26.2863 1.91101 26.3533 1.91725C26.7375 1.24314 27.2821 0.660582 28.0297 0.331852C28.6368 0.0644977 29.3065 2.62031e-07 29.9631 0.114432C30.5812 0.222622 31.174 0.486854 31.6604 0.861358C32.172 1.25459 32.5903 1.79033 32.7473 2.39994L33.6431 2.58823L34.4512 3.50473L37.9358 4.38585L37.3243 5.19207L37.1124 6.39256L36.805 6.32182C36.2627 6.19595 35.7192 6.06903 35.178 5.93692C35.1933 6.22612 35.3031 6.53716 35.5952 6.66824L36.5426 6.79411L36.614 6.90855C36.6535 6.96992 36.6853 7.04586 36.7073 7.11348C36.76 7.26953 36.7798 7.43701 36.7589 7.60034C36.6809 8.21827 36.0826 8.60421 35.526 8.83412L35.1253 8.99848L35.1165 8.58549C35.1132 8.48874 35.0945 8.37327 35.0638 8.28172C35.0308 8.1881 34.9738 8.07471 34.8497 8.09447C34.73 8.11424 34.5983 8.16729 34.4885 8.21619C34.337 8.28276 34.1899 8.35975 34.0461 8.43985C33.8034 8.57613 33.5663 8.72385 33.3346 8.87677C33.5531 9.38651 33.6673 9.9285 33.7299 10.4736C33.7661 10.7909 33.7068 11.1508 33.6344 11.4608C33.5443 11.8499 33.4159 12.2369 33.2743 12.6124C33.0668 13.1628 32.8263 13.7047 32.5683 14.2363C32.4574 14.4652 32.3422 14.6951 32.2225 14.9208C32.1281 15.6823 31.8833 16.4282 31.4562 17.0836C31.3211 17.2906 31.1674 17.4883 30.9951 17.6693C30.9764 17.688 30.9577 17.7078 30.938 17.7275C30.8996 18.4308 30.8535 19.135 30.7986 19.8372C30.7612 20.3106 30.7206 20.786 30.6635 21.2572C30.6097 21.7077 30.6789 22.1571 30.8897 22.5659C30.9687 22.7167 31.0906 22.904 31.2179 23.0247L31.3047 23.1058V23.2213C31.3047 23.3763 31.3211 23.5303 31.4112 23.6644C31.5275 23.8392 31.757 23.9807 31.9414 24.0816C32.2576 24.2553 32.4948 24.5112 32.6133 24.8379C32.6605 24.97 32.6979 25.1427 32.6902 25.2831L32.6759 25.5442L29.2253 25.5661V25.5474L26.2468 25.5661V25.2873C26.2468 25.0699 26.1919 24.8681 26.0623 24.6871C25.9701 24.556 25.8581 24.4603 25.7308 24.3614C25.6693 24.3125 25.6012 24.2616 25.5529 24.2012C25.3652 23.9703 25.542 23.3888 25.6364 23.1308C25.823 22.259 25.9086 21.3623 25.8779 20.4728C25.868 20.1764 25.845 19.8809 25.8054 19.5865C25.7857 19.4346 25.7615 19.2817 25.7308 19.1298C25.2104 18.9457 24.6691 18.8105 24.1246 18.7096C23.4143 18.5785 22.6842 18.5015 21.9552 18.4651C21.7971 18.9384 21.5325 19.3473 21.1735 19.7238C20.5873 20.3387 19.788 20.8297 19.025 21.225C18.3169 21.5922 17.791 22.1415 17.5396 22.8686C17.4638 23.0881 17.4144 23.318 17.3958 23.5479C17.3903 23.6166 17.387 23.6925 17.3881 23.7643L17.4122 23.7695L17.3936 23.8392L17.4001 23.9276L17.3716 23.9245C17.3694 23.9339 17.3683 23.9432 17.3661 23.9526C17.3968 23.988 17.4331 24.0213 17.4693 24.0514C17.556 24.1211 17.6559 24.1815 17.7548 24.2356C18.0281 24.3864 18.2323 24.608 18.3355 24.892C18.3761 25.0054 18.408 25.1562 18.4014 25.2769L18.3871 25.539L15.4207 25.5567V25.279C15.4207 25.1063 15.3757 24.9482 15.2736 24.8046C15.2 24.7006 15.11 24.6236 15.009 24.5445C14.953 24.5019 14.897 24.4582 14.8531 24.4041C14.7707 24.3021 14.7499 24.1638 14.7554 24.039C14.7609 23.9235 14.7894 23.7914 14.8333 23.6842C14.852 23.628 14.8388 23.4377 14.8333 23.3773C14.8147 23.163 14.7729 22.9477 14.7137 22.7407C14.6247 22.4255 14.4853 22.1134 14.2778 21.8512L14.0868 21.6088C13.9298 21.664 13.7794 21.7337 13.6344 21.819C13.1711 22.0915 12.8056 22.4972 12.5508 22.9508C12.4652 23.1048 12.3873 23.2681 12.3291 23.4335C12.306 23.5001 12.2709 23.6093 12.2643 23.6884C12.3082 23.7425 12.3598 23.7914 12.4147 23.8361C12.5212 23.9224 12.6442 23.9973 12.7649 24.0639C13.0822 24.2376 13.3183 24.4936 13.4379 24.8223C13.484 24.9513 13.5214 25.1271 13.5137 25.2655L13.4994 25.5266L10.0488 25.5474V25.2696C10.0488 25.0522 9.99281 24.8504 9.86436 24.6694C9.78531 24.5581 9.69309 24.4728 9.58989 24.3895L9.5317 24.3438C9.46912 24.2949 9.40325 24.2439 9.35385 24.1836C9.25504 24.0618 9.23857 23.886 9.25065 23.7393C9.26382 23.5947 9.30774 23.4179 9.3791 23.2899C9.57781 22.931 9.66345 22.4452 9.67991 22.0437C9.69638 21.638 9.64917 21.1782 9.4801 20.8037L9.35714 20.5311L9.65356 20.4333C9.77762 20.3927 9.90168 20.3407 10.0214 20.2877C10.3035 20.1618 10.5769 20.0099 10.8272 19.8352C11.5057 19.3608 12.0107 18.721 12.0579 17.9013C12.0623 17.8326 12.0656 17.765 12.0689 17.6963C12.0853 17.3884 12.104 17.0805 12.1326 16.7725C12.1677 16.4064 12.2182 16.0412 12.2917 15.6792C12.3829 15.2319 12.5102 14.7918 12.6826 14.3695ZM32.0842 2.26158C31.9173 1.88084 31.6242 1.54691 31.2904 1.291C30.8798 0.974749 30.3792 0.750047 29.8577 0.659542C29.3208 0.565916 28.7741 0.61585 28.2778 0.83431C27.5961 1.13391 27.1174 1.69671 26.7924 2.32192C26.7364 2.50501 26.7035 2.71515 26.6859 2.90344C26.6431 3.33204 26.6684 3.77 26.7496 4.19236C27.034 5.67685 27.9836 6.91271 29.1792 7.87809C29.3307 7.99981 29.4822 8.12152 29.6337 8.24323C29.9773 8.51995 30.3221 8.79667 30.6613 9.07858C30.9248 9.29913 31.1883 9.52383 31.4353 9.76205C31.8053 10.1168 32.1434 10.5027 32.3356 10.9729C32.5354 11.4588 32.5562 11.9758 32.5288 12.4907C32.5189 12.6686 32.5036 12.8465 32.4849 13.0234C32.5562 12.8559 32.6254 12.6863 32.6913 12.5157C32.8296 12.1578 32.9581 11.7896 33.0481 11.4182C33.1151 11.1456 33.1776 10.8127 33.1458 10.5329C33.0744 9.9129 32.9328 9.2908 32.6188 8.73633C32.262 8.10488 31.7296 7.64923 31.0577 7.32362C30.9446 7.26953 30.8348 7.20919 30.7294 7.14365L30.6547 7.0958L30.6558 7.09476C30.0718 6.70361 29.6776 6.15226 29.5459 5.48023C29.4383 4.932 29.5195 4.34632 29.7644 3.83762C29.4526 3.7596 29.1671 3.60876 28.9519 3.37677C28.5611 2.9565 28.5007 2.37393 28.5633 1.83819L28.5984 1.5313L32.0842 2.26158ZM31.645 14.7991L31.6318 14.7929L31.6494 14.7596C31.6582 14.6701 31.656 14.5734 31.6505 14.487C31.6307 14.2051 31.5616 13.9211 31.4606 13.6558C31.0708 12.6322 30.2068 11.8031 29.2835 11.182C28.6204 11.0395 27.9606 10.8845 27.3073 10.7108C26.7496 10.5631 26.1941 10.4008 25.6484 10.2177C25.2038 10.0669 24.7614 9.90249 24.3332 9.71212C24.1114 9.61433 23.8929 9.5103 23.6789 9.39587C23.6448 9.4302 23.6097 9.46557 23.5746 9.4999C23.5405 9.53319 23.5076 9.56648 23.4747 9.59977C23.3945 9.67987 23.3144 9.75893 23.2342 9.83799C23.209 9.86192 23.1815 9.89105 23.153 9.9181L23.1574 9.92226L23.086 9.97739C22.8939 10.1241 22.6842 10.2531 22.4646 10.3665C22.6403 10.3977 22.8148 10.431 22.9883 10.4663C24.1235 10.7004 25.2609 11.053 26.2951 11.5545C27.5082 12.1412 28.6105 12.9516 29.3373 14.0564C30.0586 15.1539 30.2957 16.3762 30.2035 17.6235C30.2474 17.5829 30.2913 17.5434 30.3353 17.5049L30.3385 17.5028L30.3528 17.4914C30.4143 17.4456 30.4736 17.3894 30.5274 17.3353C30.6767 17.1866 30.8095 17.0201 30.9259 16.8474C31.3233 16.2607 31.5462 15.5793 31.6351 14.8896H31.6318V14.8886H31.6307L31.6439 14.8022C31.645 14.8012 31.645 14.8002 31.645 14.7991ZM26.1579 2.46028C26.1524 2.46028 26.148 2.46028 26.1436 2.45924C25.9075 2.45612 25.6704 2.49357 25.4519 2.57783C24.6296 2.89616 24.3804 3.76272 24.3277 4.52629C24.2915 5.03395 24.3606 5.53225 24.5385 6.0139C24.8865 6.96056 25.6133 7.75014 26.3873 8.41488C26.8352 8.80083 27.3128 9.15661 27.7992 9.49886C28.3174 9.86504 28.8487 10.2167 29.379 10.5683L29.5272 10.6671L29.5591 10.6733L29.5569 10.6858L29.5744 10.6983C30.5252 11.3287 31.3969 12.1506 31.8767 13.1628C31.8997 12.9589 31.9195 12.7539 31.9305 12.55C31.9546 12.0871 31.9392 11.6169 31.7592 11.18C31.5857 10.7586 31.2772 10.4102 30.9457 10.0908C30.714 9.8692 30.4692 9.65906 30.2222 9.45309C29.9016 9.18677 29.5766 8.92566 29.2517 8.66455C29.1002 8.54284 28.9486 8.42112 28.7982 8.29941C27.4511 7.21127 26.4126 5.81312 26.1436 4.13306C26.0689 3.66389 26.0569 3.17912 26.1183 2.70787C26.1282 2.62777 26.1414 2.5435 26.1579 2.46028ZM27.9759 10.3092C27.8014 10.1907 27.6268 10.07 27.4533 9.94826C26.9593 9.60081 26.474 9.23879 26.0162 8.84868C25.1983 8.15169 24.4419 7.3361 24.039 6.35407C23.8897 5.99101 23.7963 5.61651 23.7546 5.23472C23.579 5.31379 23.4099 5.40637 23.2507 5.51144C22.761 5.83705 22.3845 6.28437 22.3482 6.86901C22.345 6.92623 22.3439 6.98449 22.3471 7.04274C22.3856 7.80527 23.0103 8.34206 23.6459 8.72905C23.95 8.91422 24.2728 9.07546 24.6011 9.21902C25.0139 9.40107 25.4398 9.56024 25.8691 9.7038C26.3994 9.88169 26.9395 10.0388 27.4819 10.1823C27.6466 10.226 27.8112 10.2687 27.9759 10.3092ZM22.1265 10.8731C22.5854 11.0614 23.019 11.3048 23.4143 11.595C24.32 12.2608 24.9787 13.1388 25.43 14.1292C25.7319 14.7918 25.9361 15.493 26.0689 16.2025C26.2347 17.0888 26.2918 17.9959 26.2775 18.8958C26.3028 18.9967 26.3225 19.1007 26.3401 19.2037C26.3928 19.5064 26.4268 19.8133 26.4477 20.1192C26.518 21.1657 26.4301 22.232 26.2073 23.2587L26.2029 23.2775L26.1952 23.2962C26.1601 23.3888 26.0228 23.7737 26.0272 23.8735C26.0492 23.8944 26.0854 23.9193 26.1052 23.936C26.2633 24.0587 26.4038 24.1784 26.5245 24.3375C26.6804 24.5393 26.7749 24.764 26.8133 25.0085L29.0738 24.995C28.9991 24.8088 28.8553 24.6631 28.6698 24.5612C28.3931 24.4093 28.1099 24.22 27.9364 23.9599C27.7827 23.7289 27.7388 23.4907 27.7388 23.2213V23.215L27.7399 23.2078C27.7465 23.0111 27.7684 22.8083 27.7948 22.6138C27.8541 22.1592 27.9485 21.7066 28.0736 21.2635L28.0692 21.2447L28.0791 21.2427C28.0857 21.2187 28.0934 21.1938 28.1 21.1688C28.3942 20.1639 28.8553 19.1943 29.5184 18.3631C29.6535 17.6204 29.682 16.8589 29.5404 16.1151C29.4174 15.4753 29.1737 14.874 28.8059 14.3227C28.1252 13.3032 27.0889 12.5573 25.9613 12.0174C24.9842 11.5503 23.9105 11.2205 22.8412 11.0021C22.604 10.9532 22.3658 10.9105 22.1265 10.8731ZM30.0707 18.5941L30.0663 18.6118L30.0564 18.6107C29.413 19.3889 28.9684 20.3064 28.683 21.2562C28.6797 21.2655 28.6775 21.2759 28.6742 21.2864C28.6863 21.3706 28.6906 21.4601 28.6917 21.5423C28.6961 21.6879 28.6917 21.8356 28.6863 21.9813C28.6698 22.3391 28.6368 22.7022 28.5874 23.0569C28.56 23.2608 28.6314 23.4533 28.7543 23.6176C28.7993 23.679 28.8619 23.7508 28.9267 23.8059L28.941 23.7955L28.9882 23.8548L29.0639 23.9079L29.0562 23.9141C29.0661 23.9214 29.076 23.9287 29.0837 23.9349L29.1166 23.9609V23.962C29.2604 24.0764 29.39 24.1898 29.5031 24.3375C29.6579 24.5393 29.7523 24.764 29.7907 25.0085L32.0512 24.995C31.9766 24.8098 31.8328 24.6631 31.6472 24.5612C31.3705 24.4093 31.0873 24.22 30.9138 23.9599C30.7821 23.7622 30.7305 23.5583 30.7195 23.3295C30.5373 23.1256 30.388 22.878 30.2826 22.6335C30.0838 22.1748 30.0202 21.6858 30.0805 21.1948C30.1365 20.7308 30.1761 20.2627 30.2123 19.7977C30.2507 19.3046 30.2859 18.8094 30.3166 18.3153C30.2321 18.4058 30.1497 18.4984 30.0707 18.5941ZM20.3479 11.025C19.7046 11.2361 19.1754 11.6408 18.7681 12.1537C18.6243 12.3357 18.4958 12.5303 18.3871 12.7331C18.3794 12.7477 18.3707 12.7633 18.363 12.7799C18.5452 12.8996 18.7176 13.0358 18.8779 13.1867C19.5893 13.8577 19.9845 14.7596 19.9845 15.7083C19.9845 16.1525 19.8978 16.5863 19.7331 16.991C20.0339 16.9463 20.3326 16.8922 20.6301 16.8318C21.2163 16.7122 21.8092 16.5624 22.3845 16.3752C22.6117 15.0228 22.5404 13.6101 21.8147 12.4273C21.5501 11.9966 21.2032 11.6086 20.7882 11.3017C20.6564 11.2049 20.5027 11.103 20.3479 11.025ZM23.0103 16.1525C23.187 16.0839 23.3616 16.0121 23.5318 15.9351C24.1015 15.6792 24.6637 15.3609 25.1346 14.9593C25.0677 14.7721 24.9941 14.5869 24.9129 14.4049C24.5056 13.4904 23.9083 12.6738 23.0816 12.0538C22.6425 11.7251 22.1506 11.4619 21.6258 11.2767C21.8817 11.5285 22.1056 11.8093 22.2944 12.1079C23.063 13.3282 23.1969 14.7575 23.0103 16.1525ZM22.9049 16.784C22.8247 17.1814 22.7226 17.5736 22.604 17.9533C23.1914 18.0011 23.7744 18.0771 24.3431 18.1863C24.7987 18.2747 25.2521 18.386 25.6924 18.5286C25.688 17.7983 25.6309 17.0659 25.4991 16.3471C25.4497 16.0766 25.3893 15.8072 25.3169 15.5419C24.8832 15.8748 24.3947 16.1505 23.8962 16.3814C23.5757 16.5302 23.243 16.6633 22.9049 16.784ZM22.2604 16.9952C21.7763 17.1408 21.2855 17.2615 20.7981 17.3624C20.4358 17.4383 20.0702 17.5028 19.7035 17.5559C19.608 17.5694 19.5102 17.5829 19.4136 17.5944C19.3335 17.7161 19.2457 17.8326 19.1501 17.945C19.519 17.9189 19.889 17.9013 20.259 17.8929C20.8354 17.8784 21.4205 17.8836 22.0057 17.9137C22.1012 17.6152 22.1869 17.3083 22.2604 16.9952ZM19.0316 11.0988C17.6043 11.2018 16.1969 11.5368 15.0749 12.3045C15.4371 12.1974 15.817 12.1422 16.2057 12.1422C16.7842 12.1422 17.3474 12.266 17.8558 12.499C17.858 12.4959 17.8591 12.4928 17.8612 12.4886C17.9875 12.2546 18.1368 12.0288 18.3037 11.8187C18.5178 11.5503 18.7615 11.3069 19.0316 11.0988ZM13.1569 16.6009C13.1689 16.6342 13.181 16.6675 13.192 16.7008C13.3479 17.1242 13.6048 17.5132 13.9484 17.8378C14.549 18.4048 15.3559 18.72 16.2057 18.72C16.8863 18.72 17.5385 18.5171 18.0797 18.1457L18.2378 18.0303C18.3158 17.9699 18.3904 17.9054 18.4618 17.8378C19.0623 17.2708 19.3972 16.5094 19.3972 15.7083C19.3972 14.9073 19.0623 14.1458 18.4618 13.5789C17.8612 13.0119 17.0554 12.6967 16.2057 12.6967C15.3559 12.6967 14.549 13.0119 13.9484 13.5789C13.3479 14.1458 13.0141 14.9073 13.0141 15.7083C13.0141 16.0142 13.0636 16.3148 13.1569 16.6009ZM10.197 22.672C10.1377 22.9799 10.0422 23.2868 9.89839 23.5459C9.86326 23.6104 9.8435 23.7113 9.83691 23.783C9.83581 23.8018 9.83252 23.8351 9.83252 23.859C9.85448 23.8787 9.88631 23.9006 9.90717 23.9162L9.94011 23.9422V23.9432C10.0839 24.0587 10.2135 24.1721 10.3266 24.3188C10.4814 24.5216 10.5758 24.7463 10.6153 24.9908L11.1555 24.9877C10.9205 24.6891 10.713 24.3656 10.5516 24.0265C10.3364 23.5771 10.2135 23.1214 10.197 22.672ZM11.2795 20.2024C10.9271 20.4624 10.5264 20.684 10.1213 20.8526C10.231 21.1979 10.2739 21.5745 10.2695 21.9376C10.3529 21.5891 10.5088 21.2479 10.7459 20.9171C10.9194 20.6747 11.0984 20.4375 11.2795 20.2024ZM12.6958 17.094C12.6793 17.3031 12.6672 17.5122 12.6551 17.7234L12.6442 17.9293C12.6365 18.0791 12.6156 18.2227 12.5838 18.3631C12.6398 18.2414 12.6848 18.1156 12.7144 17.9845C12.7858 17.6818 12.7671 17.3863 12.6958 17.094ZM10.8799 23.2525C10.8678 23.1141 10.8645 22.9768 10.87 22.8416C10.8953 22.2601 11.0918 21.7576 11.5013 21.3196C11.9371 20.8546 12.5399 20.5373 13.1064 20.2357C13.6981 19.9205 14.3854 19.5688 14.7345 18.9946C14.291 18.8178 13.8826 18.5598 13.5334 18.23C13.4588 18.1603 13.3885 18.0875 13.3216 18.0126C13.3128 18.0573 13.3029 18.102 13.2919 18.1468C13.2063 18.4797 13.0438 18.7855 12.8539 19.0757C12.6266 19.4232 12.3598 19.7551 12.1018 20.0838C11.8043 20.4604 11.5112 20.838 11.2334 21.2271C10.7723 21.871 10.69 22.5628 10.8799 23.2525ZM11.9756 24.9825L12.8747 24.9763C12.8001 24.7911 12.6562 24.6454 12.4707 24.5435C12.3181 24.4592 12.1666 24.3656 12.0327 24.2564C11.9174 24.1638 11.8142 24.0587 11.734 23.937C11.7044 23.8912 11.6868 23.8392 11.6802 23.7862C11.6649 23.6592 11.7132 23.4689 11.7494 23.3472C11.8175 23.1214 11.9163 22.8988 12.0316 22.6918C12.3346 22.1519 12.7726 21.6723 13.3248 21.3488C13.7289 21.1105 14.1746 20.967 14.6478 20.915C15.4382 20.8286 16.1661 20.4853 16.7722 20.0078C17.1257 19.7301 17.455 19.3962 17.7119 19.0341C17.7284 19.0102 17.746 18.9852 17.7646 18.9582C17.2805 19.1652 16.7502 19.2744 16.2057 19.2744C15.8972 19.2744 15.5941 19.2391 15.301 19.1714C14.908 19.9101 14.1472 20.3158 13.394 20.7173C12.9098 20.9753 12.384 21.2499 12.0107 21.6453C11.6649 22.0125 11.5013 22.4307 11.4804 22.9196C11.4508 23.5989 11.6989 24.3458 11.9756 24.9825ZM16.8095 23.7612C16.804 23.6644 16.8084 23.5615 16.8161 23.4668C16.8369 23.1974 16.894 22.9279 16.984 22.672C17.2827 21.8159 17.9096 21.1709 18.7417 20.7392C19.4444 20.3751 20.1964 19.9194 20.7366 19.3535C21.0001 19.0768 21.2054 18.7803 21.3426 18.4432C21.1175 18.4391 20.8936 18.438 20.6707 18.4391C19.9867 18.4453 19.2907 18.4765 18.6089 18.5462C18.5178 18.8469 18.3245 19.161 18.1412 19.4128C17.8634 19.7904 17.522 20.1389 17.1476 20.4333C16.804 20.7038 16.4263 20.9347 16.0223 21.1116C15.7775 21.4362 15.3438 21.6723 14.9574 21.8273C15.1001 22.0686 15.2055 22.3308 15.2813 22.5971C15.3559 22.8624 15.402 23.1412 15.4141 23.4148C15.4196 23.5282 15.4251 23.7789 15.3812 23.885C15.3592 23.9391 15.3438 24.0057 15.3416 24.0639C15.3416 24.0702 15.3405 24.0774 15.3405 24.0847C15.3548 24.0962 15.3702 24.1076 15.3834 24.118C15.5151 24.221 15.6326 24.3219 15.7358 24.453C15.8642 24.6184 15.9455 24.8015 15.9828 25.0002L17.7449 24.9887C17.6823 24.8743 17.5824 24.7828 17.4594 24.7151C17.3299 24.6444 17.2014 24.5643 17.0872 24.4717C16.9884 24.3906 16.8995 24.3001 16.8303 24.195C16.7787 24.117 16.77 24.0171 16.7787 23.9287C16.7842 23.8725 16.7952 23.8163 16.8095 23.7612ZM33.0755 8.37223C33.3182 8.21515 33.5674 8.06326 33.8221 7.92491C34.0845 7.78239 34.449 7.59826 34.7487 7.54832C35.2449 7.46614 35.5161 7.7699 35.6336 8.15897C35.8466 8.03518 36.0574 7.86457 36.1397 7.64195C36.1803 7.53168 36.1858 7.41413 36.1551 7.30177L35.4349 7.20607L35.4008 7.19358C34.8234 6.9668 34.5873 6.41441 34.5895 5.85786C34.5895 5.78608 34.5939 5.71222 34.6049 5.64044C34.6148 5.57386 34.6378 5.48959 34.6795 5.43342C34.7718 5.30962 34.909 5.27321 35.0528 5.33979C35.0824 5.34812 35.1143 5.3554 35.1439 5.36268C35.2164 5.37932 35.2888 5.39701 35.3613 5.41365C35.571 5.46359 35.7807 5.51248 35.9904 5.56137C36.2056 5.61235 36.4219 5.66228 36.637 5.71222L36.7677 4.97569L36.9653 4.71458L34.1207 3.99574L33.3215 3.08757L29.1309 2.20957C29.1397 2.60696 29.2725 2.98978 29.6579 3.20096C29.8171 3.28731 30.0377 3.34764 30.2222 3.3466L30.7733 3.34452L30.4681 3.77728C30.4231 3.84074 30.3825 3.90524 30.3462 3.97286C30.1146 4.39937 30.03 4.90807 30.1234 5.38036C30.2288 5.92131 30.5537 6.35927 31.0313 6.6672H31.0324L31.0555 6.68176C31.1422 6.73586 31.2322 6.78683 31.3244 6.83156C32.0666 7.1915 32.6627 7.69188 33.0755 8.37223ZM14.8531 7.94155L14.7696 7.73661C14.7049 7.77927 14.6423 7.82608 14.583 7.87497C14.6653 7.89162 14.7455 7.91242 14.8289 7.93531C14.8366 7.93739 14.8443 7.93947 14.8531 7.94155ZM15.2362 7.50255C15.2461 7.50047 15.256 7.49839 15.2659 7.49631C15.3131 7.48591 15.3603 7.47654 15.4075 7.46614C15.3493 7.47134 15.2911 7.48486 15.2362 7.50255Z" fill="url(#paint0_linear_0_59)"/>
</g>
</g>
</g>
<path id="Vector_3" fill-rule="evenodd" clip-rule="evenodd" d="M16.2297 13.6725C17.4088 13.6725 18.3639 14.5734 18.3639 15.6855C18.3639 16.7976 17.4088 17.6995 16.2297 17.6995C15.0516 17.6995 14.0965 16.7976 14.0965 15.6855C14.0965 14.5734 15.0516 13.6725 16.2297 13.6725ZM16.2297 14.691C16.8126 14.691 17.2847 15.1362 17.2847 15.6855C17.2847 16.2358 16.8126 16.6811 16.2297 16.6811C15.6478 16.6811 15.1757 16.2358 15.1757 15.6855C15.1757 15.1362 15.6478 14.691 16.2297 14.691Z" fill="url(#paint1_linear_0_59)"/>
</g>
<defs>
<filter id="filter0_d_0_59" x="2.14171" y="0.0603027" width="39.7941" height="33.5058" filterUnits="userSpaceOnUse" color-interpolation-filters="sRGB">
<feFlood flood-opacity="0" result="BackgroundImageFix"/>
<feColorMatrix in="SourceAlpha" type="matrix" values="0 0 0 0 0 0 0 0 0 0 0 0 0 0 0 0 0 0 127 0" result="hardAlpha"/>
<feOffset dy="4"/>
<feGaussianBlur stdDeviation="2"/>
<feComposite in2="hardAlpha" operator="out"/>
<feColorMatrix type="matrix" values="0 0 0 0 0 0 0 0 0 0 0 0 0 0 0 0 0 0 0.25 0"/>
<feBlend mode="normal" in2="BackgroundImageFix" result="effect1_dropShadow_0_59"/>
<feBlend mode="normal" in="SourceGraphic" in2="effect1_dropShadow_0_59" result="shape"/>
</filter>
<linearGradient id="paint0_linear_0_59" x1="22.0388" y1="0.0603027" x2="22.0388" y2="25.5661" gradientUnits="userSpaceOnUse">
<stop stop-color="#E4BA85"/>
<stop offset="1" stop-color="#FFA83A" stop-opacity="0.9"/>
</linearGradient>
<linearGradient id="paint1_linear_0_59" x1="16.2302" y1="13.6725" x2="16.2302" y2="17.6995" gradientUnits="userSpaceOnUse">
<stop stop-color="#E4BA85"/>
<stop offset="1" stop-color="#FFA83A" stop-opacity="0.9"/>
</linearGradient>
</defs>
</svg>
