<svg width="95" height="16" viewBox="0 0 95 16" fill="none" xmlns="http://www.w3.org/2000/svg">
<g id="Group 8">
<g id="Group">
<g id="Group_2">
<g id="Group_3">
<path id="Vector" d="M12.2673 12.8709V11.008C12.2673 10.1612 11.9717 9.42377 11.3805 8.79221C10.7893 8.16417 9.88034 7.77606 8.661 7.63492C9.08222 7.56083 9.52192 7.45145 9.9764 7.31032C10.4383 7.16919 10.8521 6.96455 11.2179 6.68934C11.5911 6.41766 11.8978 6.06836 12.1343 5.64496C12.3781 5.21451 12.5038 4.68173 12.5038 4.05017C12.5038 2.72353 12.0456 1.74266 11.1292 1.10051C10.2203 0.461884 8.95659 0.140808 7.33081 0.140808H0V0.507752H1.27107V15.0161H0V15.3831H6.35534V15.0161H5.08427V7.74783H6.29622C6.62138 7.74783 6.90958 7.79017 7.16823 7.87485C7.43427 7.95953 7.65597 8.11124 7.83333 8.32647C8.01807 8.54523 8.15848 8.85572 8.24716 9.25794C8.34323 9.65311 8.39496 10.1682 8.39496 10.7963V12.3064C8.39496 12.9485 8.46886 13.4849 8.61666 13.9153C8.76446 14.3493 8.97137 14.6986 9.23741 14.9597C9.51084 15.2243 9.836 15.4113 10.2129 15.5242C10.5972 15.6371 11.0147 15.6936 11.4692 15.6936C12.1269 15.6936 12.7624 15.5277 13.3758 15.1996C13.9965 14.8715 14.488 14.3211 14.8538 13.5484C14.8833 13.4919 14.9018 13.4425 14.9129 13.3931C14.9314 13.3472 14.9424 13.3049 14.9424 13.2661C14.9424 13.1744 14.9018 13.125 14.8242 13.125C14.7429 13.125 14.6505 13.2238 14.5434 13.4213C14.2773 13.8447 14.0261 14.1411 13.7896 14.3105C13.5531 14.4798 13.3388 14.5645 13.1541 14.5645C12.7698 14.5645 12.5222 14.4057 12.4151 14.0847C12.3153 13.7671 12.2673 13.3614 12.2673 12.8709ZM5.95628 7.395H5.08427V0.507752H5.95628C6.25927 0.507752 6.58073 0.543034 6.91697 0.606544C7.24952 0.673582 7.5562 0.828827 7.83333 1.07228C8.10675 1.30868 8.33584 1.66151 8.5132 2.13077C8.69795 2.59298 8.79402 3.22454 8.79402 4.02194C8.79402 4.777 8.69795 5.37681 8.5132 5.82843C8.33584 6.273 8.10675 6.61172 7.83333 6.84458C7.5562 7.0704 7.24952 7.22211 6.91697 7.29621C6.58073 7.36324 6.25927 7.395 5.95628 7.395Z" fill="#37AF37"/>
</g>
</g>
</g>
<g id="Group_4">
<g id="Group_5">
<g id="Group_6">
<path id="Vector_2" d="M27.5912 0L22.8173 13.8451C22.7065 14.1661 22.5069 14.4449 22.2113 14.6777C21.9231 14.9036 21.5241 15.0165 21.0142 15.0165V15.3834H24.5909V15.0165C24.3027 15.0165 24.0736 14.9953 23.8962 14.9459C23.7263 14.8894 23.5933 14.8259 23.4972 14.7483C23.4085 14.6636 23.342 14.5754 23.305 14.4802C23.2755 14.3778 23.2607 14.2896 23.2607 14.212C23.2607 14.1203 23.2644 14.0391 23.2755 13.9721C23.2829 13.9086 23.3124 13.8133 23.3642 13.6898L24.3544 10.6696H29.1135L30.6211 15.0165H29.35V15.3834H35.7053V15.0165H34.4343L29.2318 0H27.5912ZM26.7192 3.78234L28.9657 10.3026H24.5022L26.7192 3.78234Z" fill="#37AF37"/>
</g>
</g>
</g>
<g id="Group_7">
<g id="Group_8">
<g id="Group_9">
<path id="Vector_3" d="M48.5391 0.140958H42.1837V0.507902H43.4548V15.0163H42.1837V15.3832H48.5391V15.0163H47.268V7.50806H51.7315V15.0163H50.4604V15.3832H56.8158V15.0163H55.5447V0.479676H56.8158V0.112732H50.4604V0.479676H51.7315V6.99998H47.268V0.507902H48.5391V0.140958Z" fill="#37AF37"/>
</g>
</g>
</g>
<g id="Group_10">
<g id="Group_11">
<g id="Group_12">
<path id="Vector_4" d="M69.9755 0.508362V0.141418H63.6053V0.508362H64.8912V15.0167H63.6053V15.3837H69.9755V15.0167H68.6896V0.508362H69.9755Z" fill="#37AF37"/>
</g>
</g>
</g>
<g id="Group_13">
<g id="Group_14">
<g id="Group_15">
<path id="Vector_5" d="M76.7772 15.0154V15.3823H79.7332V15.0154C79.4154 15.0154 79.1198 14.9237 78.8464 14.7331C78.5803 14.5356 78.4473 14.2392 78.4473 13.844V0.958642L83.7237 15.3823H84.4184L89.7982 0.859849V15.0154H88.5272V15.3823H94.8825V15.0154H93.6115V0.507019H94.8825V0.140076H89.5913L85.7338 10.3722L81.8615 0.140076H76.7772V0.507019H78.0483V13.844C78.0483 14.2392 77.9152 14.5356 77.6492 14.7331C77.3906 14.9237 77.1023 15.0154 76.7772 15.0154Z" fill="#37AF37"/>
</g>
</g>
</g>
</g>
</svg>
